<?xml version="1.0" encoding="UTF-8"?>
<svg id="_Слой_1" data-name="Слой 1" xmlns="http://www.w3.org/2000/svg" xmlns:xlink="http://www.w3.org/1999/xlink" viewBox="0 0 151.86 109.92">
  <defs>
    <style>
      .cls-1 {
        fill: none;
      }

      .cls-2 {
        clip-path: url(#clippath-1);
      }

      .cls-3 {
        clip-path: url(#clippath-3);
      }

      .cls-4 {
        fill: #111219;
      }

      .cls-5 {
        clip-path: url(#clippath-2);
      }

      .cls-6 {
        clip-path: url(#clippath);
      }
    </style>
    <clipPath id="clippath">
      <rect class="cls-1" width="151.86" height="110.1"/>
    </clipPath>
    <clipPath id="clippath-1">
      <rect class="cls-1" width="151.86" height="110.1"/>
    </clipPath>
    <clipPath id="clippath-2">
      <rect class="cls-1" width="151.86" height="110.1"/>
    </clipPath>
    <clipPath id="clippath-3">
      <rect class="cls-1" width="151.86" height="110.1"/>
    </clipPath>
  </defs>
  <polygon class="cls-4" points="0 95.89 0 109.92 4.18 109.92 4.18 99.15 13.68 99.15 13.68 95.89 0 95.89"/>
  <g class="cls-6">
    <path class="cls-4" d="M20.18,109.92h-4.13v-14.03h9.68c1.38,0,2.5.07,3.38.2.88.13,1.57.38,2.06.75.5.35.84.85,1.02,1.52.2.65.3,1.49.3,2.54v.37c0,1.04-.1,1.9-.3,2.56-.18.65-.52,1.15-1.02,1.52s-1.19.61-2.06.75c-.88.13-2.01.2-3.38.2h-5.55v3.63ZM25.01,103.15c.78,0,1.39-.02,1.84-.07.45-.05.79-.14,1.02-.27.23-.15.37-.35.42-.6.07-.27.1-.61.1-1.05v-.17c0-.43-.03-.78-.1-1.05-.05-.27-.19-.46-.42-.6-.23-.15-.57-.25-1.02-.3-.45-.05-1.06-.07-1.84-.07h-4.83v4.18h4.83Z"/>
  </g>
  <path class="cls-4" d="M41.95,98.83h.1l2.91,5.65h-5.87l2.86-5.65ZM39.49,95.89l-7.64,14.03h4.48l1.27-2.51h8.86l1.29,2.51h4.5l-7.66-14.03h-5.1Z"/>
  <g class="cls-2">
    <path class="cls-4" d="M66.04,101.41c.43,0,.76-.09.99-.27.25-.18.37-.52.37-1.02,0-.53-.12-.89-.37-1.07-.23-.18-.56-.27-.99-.27h-7.51v2.64h7.51ZM66.14,106.94c.63,0,1.06-.12,1.29-.35.25-.25.37-.61.37-1.09s-.12-.85-.37-1.07c-.23-.22-.66-.32-1.29-.32h-7.61v2.84h7.61ZM54.4,109.92v-14.03h11.42c1.08,0,1.97.06,2.69.17.73.12,1.31.31,1.74.6.43.27.74.62.92,1.07.18.45.27,1,.27,1.67,0,.98-.17,1.71-.52,2.19-.35.48-.83.81-1.44.99v.05c.78.13,1.38.46,1.79.97.41.51.62,1.27.62,2.26,0,.8-.1,1.46-.3,1.99-.2.52-.51.93-.92,1.24-.42.3-.94.51-1.57.65-.63.12-1.38.17-2.24.17h-12.46Z"/>
  </g>
  <polygon class="cls-4" points="86.9 95.89 78.79 106.39 78.71 106.39 78.71 95.89 74.61 95.89 74.61 109.92 80.85 109.92 89.06 99.42 89.16 99.42 89.16 109.92 93.24 109.92 93.24 95.89 86.9 95.89"/>
  <polygon class="cls-4" points="95.94 95.89 95.94 99.05 101.98 99.05 101.98 109.92 106.14 109.92 106.14 99.05 112.21 99.05 112.21 95.89 95.94 95.89"/>
  <g class="cls-5">
    <path class="cls-4" d="M123.07,106.84c1.21,0,1.71-.03,2.39-.1.7-.07,1.21-.22,1.54-.47.35-.27.56-.65.62-1.17.08-.51.12-1.21.12-2.09v-.22c0-.89-.04-1.6-.12-2.11-.07-.53-.27-.92-.62-1.17-.33-.27-.85-.43-1.54-.5-.68-.07-1.18-.1-2.39-.1h-.35c-1.23,0-1.74.03-2.42.1s-1.19.23-1.54.5c-.33.25-.54.64-.62,1.17-.07.51-.1,1.22-.1,2.11v.22c0,.88.03,1.58.1,2.09.08.51.29.9.62,1.17.35.25.86.41,1.54.47s1.19.1,2.42.1h.35ZM122.57,110.1c-1.34,0-2.06-.03-3.04-.1-.96-.05-1.78-.16-2.46-.32-.68-.18-1.24-.43-1.67-.75-.42-.31-.74-.73-.97-1.24-.23-.51-.39-1.14-.47-1.89-.08-.75-.12-1.64-.12-2.69v-.4c0-1.04.04-1.94.12-2.69.08-.75.24-1.38.47-1.89.23-.53.56-.95.97-1.27.43-.32.99-.56,1.67-.72.68-.16,1.5-.27,2.46-.32.98-.07,1.7-.1,3.04-.1h.65c1.34,0,2.05.03,3.02.1.98.05,1.81.16,2.49.32.68.17,1.23.41,1.64.72.43.31.76.74.99,1.27.23.51.39,1.15.47,1.89.08.75.12,1.64.12,2.69v.4c0,1.04-.04,1.94-.12,2.69-.08.75-.24,1.38-.47,1.91-.23.51-.56.93-.99,1.24-.41.32-.96.56-1.64.72-.68.17-1.51.27-2.49.32-.96.07-1.67.1-3.02.1h-.65Z"/>
  </g>
  <polygon class="cls-4" points="147.68 95.89 147.68 101.02 138.4 101.02 138.4 95.89 134.22 95.89 134.22 109.92 138.4 109.92 138.4 104.5 147.68 104.5 147.68 109.92 151.86 109.92 151.86 95.89 147.68 95.89"/>
  <g class="cls-3">
    <path class="cls-4" d="M71.09,78.9l-22.63-13.06,8.12-4.69,18.57,10.72c.68.4,1.53.4,2.21,0l18.79-10.85,8.12,4.69-22.85,13.19c-3.2,1.85-7.14,1.85-10.34,0"/>
    <path class="cls-4" d="M114.5,22.15v26.13l-8.12-4.69v-21.44c0-.79-.42-1.52-1.11-1.92l-18.79-10.85V0l22.85,13.19c3.2,1.85,5.17,5.26,5.17,8.95"/>
    <path class="cls-4" d="M38.38,22.15v26.13l8.12-4.69v-21.44c0-.79.42-1.52,1.11-1.92l18.79-10.85V0l-22.85,13.19c-3.2,1.85-5.17,5.26-5.17,8.95"/>
  </g>
  <polygon class="cls-4" points="92.97 53.65 94.59 50.84 76.29 40.28 57.86 50.92 59.44 53.65 92.97 53.65"/>
  <polygon class="cls-4" points="55.95 47.44 74.38 36.8 74.38 15.04 71.7 15.04 54.47 44.88 55.95 47.44"/>
  <polygon class="cls-4" points="78.19 15.04 78.19 36.8 96.49 47.36 98.06 44.64 80.98 15.04 78.19 15.04"/>
</svg>